<svg width="320" height="105" viewBox="0 0 320 105" fill="none" xmlns="http://www.w3.org/2000/svg">
<g clip-path="url(#clip0)">
<path d="M-1 0H320L319.193 9.31585C316.487 40.5598 291.54 65.2401 260.268 67.6102L99.1016 79.8249C84.5988 80.9241 70.603 85.6416 58.3941 93.5461L-1 132V0Z" fill="#0B988F"/>
<g filter="url(#filter0_d)">
<path d="M167.59 32.1486C120.813 32.0465 48.8887 -1.78604 48.8887 -1.78604H287.222C287.222 -1.78604 214.728 32.2515 167.59 32.1486Z" fill="#0DA399"/>
</g>
<path d="M224.011 15.1812C180.396 15.0979 113.333 -12.5023 113.333 -12.5023H335.556C335.556 -12.5023 267.961 15.2652 224.011 15.1812Z" fill="url(#paint0_linear)"/>
</g>
<defs>
<filter id="filter0_d" x="12.8887" y="-27.786" width="310.333" height="105.935" filterUnits="userSpaceOnUse" color-interpolation-filters="sRGB">
<feFlood flood-opacity="0" result="BackgroundImageFix"/>
<feColorMatrix in="SourceAlpha" type="matrix" values="0 0 0 0 0 0 0 0 0 0 0 0 0 0 0 0 0 0 127 0"/>
<feOffset dy="10"/>
<feGaussianBlur stdDeviation="18"/>
<feColorMatrix type="matrix" values="0 0 0 0 0 0 0 0 0 0 0 0 0 0 0 0 0 0 0.25 0"/>
<feBlend mode="normal" in2="BackgroundImageFix" result="effect1_dropShadow"/>
<feBlend mode="normal" in="SourceGraphic" in2="effect1_dropShadow" result="shape"/>
</filter>
<linearGradient id="paint0_linear" x1="222.493" y1="-12.5023" x2="229.363" y2="22.667" gradientUnits="userSpaceOnUse">
<stop stop-color="#1FBDB3"/>
<stop offset="1" stop-color="#17D8CB" stop-opacity="0.37"/>
</linearGradient>
<clipPath id="clip0">
<rect width="320" height="105" fill="white"/>
</clipPath>
</defs>
</svg>
