<svg width="992" height="204" viewBox="0 0 992 204" fill="none" xmlns="http://www.w3.org/2000/svg">
<g clip-path="url(#clip0)">
<path d="M-1.55005 -3H992.775V-3C974.186 72.2152 908.085 126.064 830.664 129.062L608.385 137.669C585.491 138.555 562.688 141.064 540.148 145.176L-1.55005 244V-3Z" fill="#0B988F"/>
<g filter="url(#filter0_d)">
<path d="M554.124 62.9994C398.06 62.7316 158.1 -26 158.1 -26H953.25C953.25 -26 711.387 63.2693 554.124 62.9994Z" fill="#0DA399"/>
</g>
<path d="M684.712 32.9995C528.802 32.8009 289.075 -33 289.075 -33H1083.45C1083.45 -33 841.82 33.1997 684.712 32.9995Z" fill="url(#paint0_linear)"/>
</g>
<defs>
<filter id="filter0_d" x="122.1" y="-52" width="867.15" height="161" filterUnits="userSpaceOnUse" color-interpolation-filters="sRGB">
<feFlood flood-opacity="0" result="BackgroundImageFix"/>
<feColorMatrix in="SourceAlpha" type="matrix" values="0 0 0 0 0 0 0 0 0 0 0 0 0 0 0 0 0 0 127 0"/>
<feOffset dy="10"/>
<feGaussianBlur stdDeviation="18"/>
<feColorMatrix type="matrix" values="0 0 0 0 0 0 0 0 0 0 0 0 0 0 0 0 0 0 0.25 0"/>
<feBlend mode="normal" in2="BackgroundImageFix" result="effect1_dropShadow"/>
<feBlend mode="normal" in="SourceGraphic" in2="effect1_dropShadow" result="shape"/>
</filter>
<linearGradient id="paint0_linear" x1="679.287" y1="-33" x2="690.438" y2="52.5928" gradientUnits="userSpaceOnUse">
<stop stop-color="#1FBDB3"/>
<stop offset="1" stop-color="#17D8CB" stop-opacity="0.37"/>
</linearGradient>
<clipPath id="clip0">
<rect width="993" height="207" fill="white" transform="translate(0 -3)"/>
</clipPath>
</defs>
</svg>
