<?xml version="1.0" encoding="utf-8"?>
<!-- Generator: Adobe Illustrator 22.1.0, SVG Export Plug-In . SVG Version: 6.00 Build 0)  -->
<svg version="1.1" id="casino-payments" xmlns="http://www.w3.org/2000/svg" xmlns:xlink="http://www.w3.org/1999/xlink" x="0px"
	 y="0px" viewBox="0 0 1400 900" style="enable-background:new 0 0 1400 900;" xml:space="preserve">
<style type="text/css">
	.st0{fill:url(#card-form_1_);}
	.st1{fill:#231F20;}
</style>
<g id="ecopayz_1_">
	
		<linearGradient id="card-form_1_" gradientUnits="userSpaceOnUse" x1="700" y1="1137.0079" x2="700" y2="237.0079" gradientTransform="matrix(1 0 0 1 0 -237.0079)">
		<stop  offset="0" style="stop-color:#CDCCCC"/>
		<stop  offset="0.6582" style="stop-color:#FFFFFF"/>
	</linearGradient>
	<path id="card-form_5_" class="st0" d="M1300,900H100C45,900,0,855,0,800V100C0,45,45,0,100,0h1200c55,0,100,45,100,100v700
		C1400,855,1355,900,1300,900z"/>
	<g>
		<title>Page 1</title>
		<desc>Created with Sketch.</desc>
		<g id="UI">
			<g id="Product---business-_x28_desktop_x29_" transform="translate(-676.000000, -1589.000000)">
				<path id="Page-1" class="st1" d="M1032.9,2167.3h61v-286.5h-61V2167.3z M1419.4,2001.6V1976h-0.8l0,0h-53.3l0,0h-3v191.3h57.7
					V2067c0-29.1,32.8-41.8,55.3-35.4c0.3,0.1,0.4,0,0.7,0V1976C1452.5,1976,1430.8,1986.2,1419.4,2001.6L1419.4,2001.6z
					 M1223.1,2123c-29.9,0-54.1-23-54.1-51.4c0-28.3,24.2-51.4,54.1-51.4c29.9,0,54.1,23,54.1,51.4
					C1277.2,2100,1253,2123,1223.1,2123L1223.1,2123z M1276.7,1989.2c-16.5-11.7-36.6-18.6-58.3-18.6c-55.7,0-101,45.2-101,101
					c0,55.7,45.2,101,101,101c21.7,0,41.8-6.9,58.3-18.6v13.3h49.9V1976h-49.9V1989.2z M1618.9,1970.9c-22.9,0-44.6,7.1-59,26.7
					V1976h-0.8l0,0h-53.3l0,0h-3v191.3h57.7v-104.6c0-29.1,19.5-43.4,43-43.4c25.2,0,39.6,15,39.6,42.9v105h57.2v-121.7
					C1700.4,2001.1,1665,1970.9,1618.9,1970.9L1618.9,1970.9z M1990.5,2099.5c-19.9,0-36,16.1-36,36c0,19.9,16.1,36,36,36
					c19.9,0,36-16.1,36-36C2026.5,2115.6,2010.4,2099.5,1990.5,2099.5L1990.5,2099.5z M1826.3,2123c-29.9,0-54.1-23-54.1-51.4
					c0-28.3,24.2-51.4,54.1-51.4c29.9,0,54.1,23,54.1,51.4C1880.4,2100,1856.2,2123,1826.3,2123L1826.3,2123z M1879.9,1989.2
					c-16.5-11.7-36.5-18.6-58.3-18.6c-55.7,0-101,45.2-101,101c0,55.7,45.2,101,101,101c21.7,0,41.8-6.9,58.3-18.6v13.3h49.9V1976
					h-49.9V1989.2z M1966,1979.5h2.8c1.8,0,2.5,0.8,2.5,2.1s-0.5,2.3-2.5,2.3h-2.8V1979.5z M1966.1,1986.2h2.8l2.3,5.4h2.8l-2.6-5.8
					c1.7-0.8,2.5-2.2,2.5-4.2c0-2.7-2.1-4.5-5.1-4.5h-5.3v14.5h2.6L1966.1,1986.2L1966.1,1986.2z M764.4,2167.3H828v-286.5h-63.6
					V2167.3z M991.3,1880.8h-61.8c-1.3,64.7-38.6,120.5-92.8,148.2l94.9,138.3h77.5l-86.3-125.8
					C966,1999.2,990.4,1942.2,991.3,1880.8L991.3,1880.8z M1968.1,1973.4c6.1,0,10.9,5,10.9,11.1c0,6.1-4.9,11.1-10.9,11.1
					c-6.1,0-10.9-5-10.9-11.1C1957.2,1978.4,1962.1,1973.4,1968.1,1973.4L1968.1,1973.4z M1968.1,1998.3c7.5,0,13.6-6.2,13.6-13.8
					c0-7.6-6.1-13.8-13.6-13.8s-13.6,6.2-13.6,13.8C1954.6,1992.1,1960.6,1998.3,1968.1,1998.3L1968.1,1998.3z"/>
			</g>
		</g>
	</g>
</g>
</svg>
