<?xml version="1.0" encoding="UTF-8"?> <svg xmlns="http://www.w3.org/2000/svg" xmlns:xlink="http://www.w3.org/1999/xlink" viewBox="0 0 1390 893.6"><defs><style>.cls-1{fill:url(#Безымянный_градиент);}.cls-2{fill:#bcbec0;}.cls-3{fill:#f69220;}.cls-4{fill:#606060;}</style><linearGradient id="Безымянный_градиент" x1="695" y1="-266.5" x2="695" y2="624.1" gradientTransform="matrix(1, 0, 0, -1, 0, 625.6)" gradientUnits="userSpaceOnUse"><stop offset="0" stop-color="#cdcccc"></stop><stop offset="0.66" stop-color="#fff"></stop></linearGradient></defs><title>muchbetter-casino</title><g id="Слой_2" data-name="Слой 2"><g id="casino-payments"><g id="paypal"><g id="card-form"><path id="_Контур_" data-name="&lt;Контур&gt;" class="cls-1" d="M99.3,892.1A98,98,0,0,1,1.5,794.3V99.3A98,98,0,0,1,99.3,1.5H1290.7a98,98,0,0,1,97.8,97.8v695a98,98,0,0,1-97.8,97.8Z"></path><path id="_Составной_контур_" data-name="&lt;Составной контур&gt;" class="cls-2" d="M1290.7,3A96.62,96.62,0,0,1,1387,99.3v695a96.62,96.62,0,0,1-96.3,96.3H99.3A96.62,96.62,0,0,1,3,794.3V99.3A96.62,96.62,0,0,1,99.3,3H1290.7m0-3H99.3C44.7,0,0,44.7,0,99.3v695c0,54.6,44.7,99.3,99.3,99.3H1290.7c54.6,0,99.3-44.7,99.3-99.3V99.3c0-54.6-44.7-99.3-99.3-99.3Z"></path></g></g><g id="muchbetter"><path class="cls-3" d="M615.23,399.15a21.8,21.8,0,0,1-18.85-11.06L506.51,233.24c-5.89-10.42-2.62-23.46,7.79-29.27s23.46-2.62,29.27,7.79l90.51,154.85c5.89,10.42,2.62,23.46-7.79,29.27A21.61,21.61,0,0,1,615.23,399.15Z"></path><path class="cls-4" d="M842.93,314.61a72.69,72.69,0,0,0-10.42-33.17C822.73,263.86,811,252.17,796.09,245c-13-5.89-27.36-9.78-42.31-7.79,5.17-10.42,7.79-21.47,9.15-32.53,1.27-16.3-3.9-31.26-13.68-48.12Q739.46,140,725.78,131.2a71.86,71.86,0,0,0-30.54-10.58c-11.06-1.27-22.75,0-34.52,2.62-3.9.64-7.79,2-12.33,3.26-1.27.64-3.26,1.27-5.17,2-7.16,2.62-26,13-32.53,16.94l-30.62,18.85-.64.64c-11.69,6.52-15.59,21.47-9.15,33.17a23.4,23.4,0,0,0,32.53,9.07h.64l50.74-29.27a40.37,40.37,0,0,1,15-5.17,39.82,39.82,0,0,1,15,1.27c4.53,1.27,9.15,3.9,13.68,7.16a45.84,45.84,0,0,1,10.42,11.69,40.37,40.37,0,0,1,5.17,15,58.74,58.74,0,0,1,0,15,33,33,0,0,1-5.17,13,38.19,38.19,0,0,1-10.42,9.78l-30.62,18.21-13,7.79-8.43,3.9c-11.06,6.52-15,20.2-8.43,31.26,4.53,7.16,11.69,11.69,19.49,11.69a26,26,0,0,0,11.69-3.26l16.94-9.78L729,281.92a37,37,0,0,1,13.68-4.53,52.24,52.24,0,0,1,14.32,2c4.53,2,9.15,3.9,13,7.79a48.76,48.76,0,0,1,10.42,12.33,40.37,40.37,0,0,1,5.17,15,38.93,38.93,0,0,1-.64,15,42.92,42.92,0,0,1-6.52,13.68,45.84,45.84,0,0,1-11.69,10.42l-75.48,42.95-3.9,2-13.68,7.16-26,14.32a24.5,24.5,0,0,0-9.78,32.53,24,24,0,0,0,20.84,12.33,21.06,21.06,0,0,0,11.06-2.62L734.85,427l52.09-28.63a124.16,124.16,0,0,0,30.62-23.46c8.43-9.15,15-18.21,19.49-28.63A65,65,0,0,0,842.93,314.61Z"></path><path class="cls-4" d="M672.51,694.59c-4.69,0-10.78,0-14.81-4.69C653,685.21,653,679.78,653,675.09V549.87c0-4.69,0-10.78,4.69-14.81,4.69-4.69,10.12-4.69,14.81-4.69H719c32.33,0,51.18,18.18,51.18,45.74A38.08,38.08,0,0,1,750,609.77c10.12,4.69,22.87,14.81,22.87,37,0,30.94-20.9,47.14-50.52,47.14H672.59v.66Zm12.75-135.26V597h31.68c13.49,0,20.9-7.4,20.9-18.84s-7.4-18.84-20.9-18.84H685.26Zm33,107c14.81,0,21.56-9.46,21.56-20.16s-6.75-20.16-21.56-20.16H684.6v40.4h33.65Zm104.32-22.21c0,15.47,9.46,26.9,26.25,26.9a33.94,33.94,0,0,0,20.9-6.75c4.69-3.37,7.4-4.69,11.44-4.69,6.09,0,12.09,5.35,12.09,12.75,0,5.35-4.69,10.78-11.44,15.47-8.06,5.35-19.5,8.06-33,8.06-28.3,0-55.21-12.75-55.21-61.29,0-39.08,20.9-61.29,51.83-61.29,32.33,0,51.18,23.53,52.49,53.89,0,4.69-.66,10.12-4,13.49-4,4-8.72,4-13.49,4H822.5v-.58ZM865,610.51c-3.37-7.4-10.12-12.09-20.16-12.09s-16.87,5.35-20.16,12.09A28.53,28.53,0,0,0,822,623.26h45.74A28.87,28.87,0,0,0,865,610.51ZM926.9,601h-2.72a34,34,0,0,1-10.12-1.32c-3.37-2.06-5.35-5.35-5.35-10.12a11.21,11.21,0,0,1,5.35-10.12c2.72-1.32,4.69-1.32,10.12-1.32h2.72V562c0-7.4.66-10.12,2.06-13.49,2.06-4.69,6.75-7.4,12.75-7.4s10.78,2.72,12.75,7.4c1.32,3.37,2.06,6.09,2.06,13.49v16.13h8.72a34,34,0,0,1,10.12,1.32c3.37,2.06,5.35,5.35,5.35,10.12a11.21,11.21,0,0,1-5.35,10.12c-2.72,1.32-4.69,1.32-10.12,1.32h-8.72V659c0,5.35,2.06,10.12,9.46,10.78,4,0,6.75.66,8.72,2.06a12.58,12.58,0,0,1,0,21.56c-2.72,1.32-6.75,2.06-12.09,2.06H961.3c-24.93,0-34.31-16.87-34.31-34.31L926.9,601Zm80.14,0h-2.72a34,34,0,0,1-10.12-1.32c-3.37-2.06-5.35-5.35-5.35-10.12a11.21,11.21,0,0,1,5.35-10.12c2.72-1.32,4.69-1.32,10.12-1.32H1007V562c0-7.4.66-10.12,2.06-13.49,2.06-4.69,6.75-7.4,12.75-7.4s10.78,2.72,12.75,7.4c1.32,3.37,2.06,6.09,2.06,13.49v16.13h8.72a34,34,0,0,1,10.12,1.32c3.37,2.06,5.35,5.35,5.35,10.12a11.21,11.21,0,0,1-5.35,10.12c-2.72,1.32-4.69,1.32-10.12,1.32h-8.72V659c0,5.35,2.06,10.12,9.46,10.78,4,0,6.75.66,8.72,2.06a12.58,12.58,0,0,1,0,21.56c-2.72,1.32-6.75,2.06-12.09,2.06h-1.32c-24.93,0-34.31-16.87-34.31-34.31L1007,601Zm97.58,43.11c0,15.47,9.46,26.9,26.25,26.9a33.94,33.94,0,0,0,20.9-6.75c4.69-3.37,7.4-4.69,11.44-4.69,6.09,0,12.09,5.35,12.09,12.75,0,5.35-4.69,10.78-11.44,15.47-8.06,5.35-19.5,8.06-33,8.06-28.3,0-55.21-12.75-55.21-61.29,0-39.08,20.9-61.29,51.83-61.29,32.33,0,51.18,23.53,52.49,53.89,0,4.69-.66,10.12-4,13.49-4,4-8.72,4-13.49,4h-57.92v-.58Zm42.45-33.65c-3.37-7.4-10.12-12.09-20.16-12.09s-16.87,5.35-20.16,12.09a28.53,28.53,0,0,0-2.72,12.75h45.74A27.78,27.78,0,0,0,1147.07,610.51Zm113-37c9.46,0,15.47,2.06,20.9,5.35a14.49,14.49,0,0,1,7.4,12.75,15,15,0,0,1-4.69,10.78,13.7,13.7,0,0,1-10.12,4c-2.72,0-6.09-1.32-10.12-3.37a22.35,22.35,0,0,0-11.44-3.37c-10.12,0-20.16,6.75-20.16,22.21v52.49c0,7.4-.66,10.12-2.06,13.49-2.06,4.69-6.75,7.4-12.75,7.4s-10.78-2.72-12.75-7.4c-1.32-3.37-2.06-6.09-2.06-13.49V593.56c0-7.4.66-10.12,2.06-13.49,2.06-4,7.4-6.75,12.75-6.75,4,0,7.4,1.32,9.46,3.37,2.72,2.06,4,4.69,4.69,9.46C1237.9,579.49,1248.68,573.48,1260.12,573.48Z"></path><path class="cls-3" d="M169.65,651.56,143.4,599.07v74c0,7.4,0,10.12-2.06,14.15-2.72,4.69-7.4,7.4-14.15,7.4a16.56,16.56,0,0,1-14.15-7.4c-2.06-4-2.06-6.75-2.06-14.15V549.21c0-6.75.66-11.44,4.69-15.47a15.25,15.25,0,0,1,10.78-4c4,0,6.75.66,9.46,2.72,3.37,2.06,6.09,6.09,8.06,10.12L184.37,620l40.4-77.42c2.06-4,4.69-8.06,8.06-10.12,2.72-2.06,5.35-2.72,9.46-2.72a15.25,15.25,0,0,1,10.78,4c4,4,4.69,8.72,4.69,15.47V672.38c0,7.4,0,10.12-2.06,14.15-2.72,4.69-7.4,7.4-14.15,7.4a16.56,16.56,0,0,1-14.15-7.4c-2.06-4-2.06-6.75-2.06-14.15v-74L199.1,650.82c-4,8.06-8.06,11.44-15.47,11.44S173.68,659,169.65,651.56Zm72.65,43.69a16.76,16.76,0,0,1-14.81-8.06c-2.06-4-2.06-7.4-2.06-14.81v-68l-24.27,47.8c-4,7.4-8.06,12.09-16.13,12.09-8.72,0-12.75-4-16.13-12.09L144,604.42v68.7c0,7.4,0,10.12-2.06,14.81-2.72,5.35-8.72,8.06-14.81,8.06a16.76,16.76,0,0,1-14.81-8.06c-2.06-4-2.06-7.4-2.06-14.81V549.21c0-6.75.66-12.09,5.35-16.13A14.74,14.74,0,0,1,127,528.4c4,0,7.4.66,10.12,2.72a29,29,0,0,1,8.72,10.12l39.74,75.36,39.74-75.36a29,29,0,0,1,8.72-10.12c2.72-2.06,6.09-2.72,10.12-2.72,4.69,0,8.72,1.32,11.44,4.69,4,4,5.35,9.46,5.35,16.13V672.38c0,7.4,0,10.12-2.06,14.81C255.13,692.62,249,695.25,242.29,695.25ZM227.49,593.64v78.74c0,7.4,0,10.12,2.06,13.49,2.06,4,7.4,6.75,12.75,6.75A15.25,15.25,0,0,0,255,685.87c2.06-3.37,2.06-6.09,2.06-13.49V549.21c0-6.75-.66-10.78-4.69-14.81a13.7,13.7,0,0,0-10.12-4c-4,0-6.09.66-8.72,2.72a27.13,27.13,0,0,0-7.4,9.46l-41.71,80.14-41.71-79.4a27.91,27.91,0,0,0-7.4-9.46,13.28,13.28,0,0,0-8.72-2.72,13.7,13.7,0,0,0-10.12,4c-4,4-4.69,8.06-4.69,14.81V673.12c0,7.4,0,10.12,2.06,13.49,2.06,4,7.4,6.75,12.75,6.75a15.25,15.25,0,0,0,12.75-6.75c2.06-3.37,2.06-6.09,2.06-13.49v-79.4l29,57.18c4,8.06,7.4,10.78,14.15,10.78s10.12-2.72,14.15-10.78Zm101.69,101c-12.09,0-21.56-4-28.3-10.78-9.46-9.46-12.09-20.9-12.09-33.65V593.64c0-7.4.66-10.12,2.06-13.49a14.22,14.22,0,0,1,12.75-7.4c6,0,10.78,2.72,12.75,7.4,1.32,3.37,2.06,6.09,2.06,13.49v52.49c0,16.13,10.12,21.56,19.5,21.56s20.16-5.35,20.16-21.56V593.64c0-7.4.66-10.12,2.06-13.49a14.22,14.22,0,0,1,12.75-7.4c6,0,10.78,2.72,12.75,7.4,1.32,3.37,2.06,6.09,2.06,13.49v80.14c0,7.4-.66,10.12-2.06,13.49-2.06,4-7.4,6.75-12.75,6.75-4,0-7.4-1.32-9.46-3.37-2.72-2.06-3.37-4.69-4.69-8.72C352,690.56,340.61,694.59,329.18,694.59Zm0,1.4c-12.09,0-22.21-4-29-10.78-8.72-8.72-12.75-18.84-12.75-35V593.72c0-7.4,0-10.12,2.06-14.15a15.67,15.67,0,0,1,14.15-8.06c6.09,0,11.44,2.72,14.15,8.06,2.06,3.37,2.06,6.75,2.06,14.15v52.49c0,18.84,14.15,20.16,18.18,20.16s18.84-1.32,18.84-20.16V593.72c0-7.4,0-10.12,2.06-14.15a15.67,15.67,0,0,1,14.15-8.06c6.75,0,11.44,2.72,14.15,8.06,2.06,3.37,2.06,6.75,2.06,14.15v80.14c0,7.4,0,10.12-2.06,14.15-2.72,4.69-8.06,7.4-14.15,7.4-4,0-8.06-1.32-10.12-4a13.08,13.08,0,0,1-4-7.4C351.39,692,340.61,696,329.18,696ZM304.25,574.8c-5.35,0-9.46,2.06-11.44,6.09-1.32,2.72-2.06,5.35-2.06,12.75v56.52c0,14.81,3.37,24.93,11.44,33,6.75,6.75,16.13,10.12,26.9,10.12,11.44,0,22.21-4.69,29-12.09l1.32-2.06.66,2.72a13.18,13.18,0,0,0,4,8.06,12.61,12.61,0,0,0,8.72,3.37,13,13,0,0,0,11.44-6.09c2.06-3.37,2.06-5.35,2.06-12.75V593.64c0-7.4-.66-10.12-2.06-12.75-2.06-4-6.09-6.09-11.44-6.09s-9.46,2.06-11.44,6.09c-1.32,2.72-2.06,5.35-2.06,12.75v52.49c0,16.87-10.78,22.87-20.9,22.87s-20.9-6.09-20.9-22.87V593.64c0-7.4-.66-10.12-2.06-12.75C313.71,576.78,309.68,574.8,304.25,574.8Zm184.46,4c6.75,3.37,14.15,9.46,14.15,16.87a12.26,12.26,0,0,1-4,9.46,13.5,13.5,0,0,1-9.46,4c-3.37,0-6.09-1.32-10.12-4-4.69-3.37-8.72-5.35-14.15-5.35a20.66,20.66,0,0,0-16.87,8.06c-4.69,5.35-6.75,13.49-6.75,26.25s2.06,20.9,6.75,26.25c4,5.35,9.46,8.06,16.87,8.06a22.36,22.36,0,0,0,14.15-4.69c4-2.72,6.75-4,10.12-4a15.54,15.54,0,0,1,9.46,4,13.3,13.3,0,0,1,4,9.46c0,7.4-7.4,13.49-14.15,16.87-6.75,4-14.15,5.35-23.53,5.35-23.53,0-53.15-12.75-53.15-61.29s29.62-60.55,53.15-60.55A37.4,37.4,0,0,1,488.71,578.83ZM465.18,696c-10.12,0-24.27-2.06-36.37-12.75s-18.18-27.56-18.18-49.78,6.09-39.08,18.18-49.12c12.09-10.78,26.25-12.75,36.37-12.75a48.1,48.1,0,0,1,24.27,6.09c6.75,3.37,14.81,9.46,14.81,18.18a14.32,14.32,0,0,1-4.69,10.78,14.81,14.81,0,0,1-10.12,4c-4,0-6.75-1.32-10.78-4-5.35-3.37-8.72-4.69-13.49-4.69-6.75,0-12.09,2.72-15.47,7.4-4.69,5.35-6.09,13.49-6.09,25.59s2.06,20.16,6.09,25.59a20.24,20.24,0,0,0,15.47,7.4c5.35,0,8.72-1.32,13.49-4.69,4-2.72,6.75-4.69,10.78-4.69,3.37,0,7.4,2.06,10.12,4.69A14.32,14.32,0,0,1,504.26,674c0,6.75-4.69,12.75-14.81,18.18A79.38,79.38,0,0,1,465.18,696Zm0-121.85c-15.47,0-51.83,6.09-51.83,59.24,0,53.89,36.37,59.9,51.83,59.9,8.72,0,15.47-1.32,22.87-5.35,9.46-5.35,13.49-10.12,13.49-15.47,0-3.37-1.32-6.09-4-8.72a11,11,0,0,0-8.06-3.37c-2.72,0-5.35,1.32-9.46,4-5.35,4-9.46,5.35-14.81,5.35-7.4,0-13.49-2.72-17.52-8.06-4.69-6.09-6.75-14.15-6.75-26.9s2.06-20.9,6.75-26.9c4.69-5.35,10.12-8.06,17.52-8.06,6.09,0,10.12,2.06,14.81,5.35,4,2.72,6.09,4,9.46,4a12.07,12.07,0,0,0,8.06-3.37c2.72-2.72,4-5.35,4-8.72,0-7.4-8.72-12.75-13.49-15.47h0C481.3,576.12,474.56,574.14,465.18,574.14Zm156.16,113a14.22,14.22,0,0,1-12.75,7.4c-6.09,0-10.78-2.72-12.75-7.4-1.32-3.37-2.06-6.09-2.06-13.49V621.2c0-16.13-10.12-21.56-19.5-21.56S554.12,605,554.12,621.2V673.7c0,7.4-.66,10.12-2.06,13.49a14.22,14.22,0,0,1-12.75,7.4c-6.09,0-10.78-2.72-12.75-7.4-1.32-3.37-2.06-6.09-2.06-13.49V549.87c0-7.4.66-10.12,2.06-13.49a14.22,14.22,0,0,1,12.75-7.4c6.09,0,10.78,2.72,12.75,7.4,1.32,3.37,2.06,6.09,2.06,13.49v35c7.4-8.06,16.13-12.09,29-12.09,12.09,0,21.56,4,28.3,10.78,9.46,9.46,12.09,20.9,12.09,33.65V673.7C623.31,681.18,622.65,683.82,621.34,687.19Zm-13.49,8.06c-6.09,0-11.44-2.72-14.15-8.06-2.06-3.37-2.06-6.75-2.06-14.15V620.55c0-18.84-14.15-20.16-18.18-20.16s-18.84,1.32-18.84,20.16V673c0,7.4,0,10.12-2.06,14.15a15.67,15.67,0,0,1-14.15,8.06c-6.09,0-11.44-2.72-14.15-8.06-2.06-3.37-2.06-6.75-2.06-14.15V549.87c0-7.4,0-10.12,2.06-14.15a15.67,15.67,0,0,1,14.15-8.06c6.09,0,11.44,2.72,14.15,8.06,2.06,3.37,2.06,6.75,2.06,14.15v32.33a38.64,38.64,0,0,1,27.56-10.78c12.09,0,22.21,4,29,10.78,8.72,8.72,12.75,18.84,12.75,35V673.7c0,7.4,0,10.12-2.06,14.15C619.94,692.62,614.59,695.25,607.84,695.25Zm-34.31-96.92c10.12,0,20.9,6.09,20.9,22.87V673.7c0,7.4.66,10.12,2.06,12.75,2.06,4,6.09,6.09,11.44,6.09s10.12-2.72,11.44-6.09h0c1.32-2.72,2.06-5.35,2.06-12.75V617.17c0-14.81-3.37-24.93-11.44-33-6.75-6.75-16.13-10.12-26.9-10.12-11.44,0-20.16,3.37-28.3,12.09l-2.06,2.06V549.87c0-7.4-.66-10.12-2.06-12.75-2.06-4-6.75-6.09-11.44-6.09-5.35,0-9.46,2.06-11.44,6.09-1.32,2.72-2.06,5.35-2.06,12.75V673.7c0,7.4.66,10.12,2.06,12.75,2.06,4,6.09,6.09,11.44,6.09s10.12-2.72,11.44-6.09c1.32-2.72,2.06-5.35,2.06-12.75V621.2C552.64,604.42,563.41,598.33,573.53,598.33Z"></path></g></g></g></svg> 