<svg width="52" height="37" viewBox="0 0 52 37" fill="none" xmlns="http://www.w3.org/2000/svg">
<path d="M51.2872 7.59556C50.6729 7.07119 49.8061 6.96069 49.0796 7.31433L37.9642 12.7256L27.5345 0.700375C27.1488 0.255532 26.5889 0 26 0C25.4112 0 24.8513 0.255532 24.4655 0.700375L14.0359 12.7255L2.92045 7.31423C2.19398 6.96069 1.32724 7.07109 0.712788 7.59545C0.0983348 8.11982 -0.14704 8.95853 0.0878739 9.73142L7.80662 35.122C8.06672 35.9777 8.85576 36.5625 9.75002 36.5625H42.25C43.1442 36.5625 43.9333 35.9777 44.1933 35.1221L51.9121 9.73152C52.1471 8.95863 51.9017 8.11992 51.2872 7.59556Z" fill="#FD9C65"/>
</svg>
