<svg width="66" height="47" viewBox="0 0 66 47" fill="none" xmlns="http://www.w3.org/2000/svg">
<path d="M65.0952 9.76386C64.3156 9.0898 63.2154 8.94776 62.2933 9.40235L48.1853 16.3584L34.9477 0.900312C34.4581 0.328478 33.7474 0 33 0C32.2526 0 31.5421 0.328478 31.0524 0.900312L17.8147 16.3582L3.70673 9.40222C2.78466 8.94776 1.68458 9.08967 0.904692 9.76373C0.12481 10.4378 -0.186628 11.5159 0.111532 12.5094L9.90841 45.1483C10.2385 46.2483 11.24 47 12.375 47H53.625C54.7599 47 55.7615 46.2483 56.0915 45.1485L65.8884 12.5096C66.1867 11.516 65.8752 10.4379 65.0952 9.76386Z" fill="#FFCA41"/>
</svg>
