<svg width="35" height="35" viewBox="0 0 35 35" fill="none" xmlns="http://www.w3.org/2000/svg">
<path d="M1.32212 17.0118C1.88437 17.6837 2.71117 18.0713 3.59072 18.0713C5.19758 18.0713 6.56402 16.9811 6.91147 15.4219C8.01411 10.5032 12.4963 6.9298 17.5701 6.9298C23.5981 6.9298 28.5031 11.7976 28.5031 17.7825C28.5031 23.7681 23.5981 28.6359 17.5701 28.6359C15.5857 28.6359 13.6811 28.1091 11.9936 27.1006L12.9138 26.175C13.1859 25.9012 13.2658 25.4897 13.1151 25.1343C12.9628 24.7782 12.6108 24.55 12.2219 24.5537L6.22712 24.5507C5.52393 24.5567 4.94057 25.1829 4.94359 25.869L4.96771 31.8389C4.96922 32.2347 5.20436 32.5826 5.56538 32.7285C5.9264 32.8729 6.33791 32.7891 6.6115 32.5153L7.51969 31.6003C10.435 33.693 13.9652 34.834 17.5709 34.834C27.0409 34.834 34.7466 27.1844 34.7466 17.7825C34.7466 8.38131 27.0409 0.7317 17.5701 0.731699C9.32704 0.731699 2.23182 6.56468 0.696562 14.5996C0.532255 15.4586 0.75987 16.3369 1.32212 17.0118Z" fill="url(#paint0_linear)"/>
<defs>
<linearGradient id="paint0_linear" x1="33.5867" y1="24.5135" x2="0.0653801" y2="23.3236" gradientUnits="userSpaceOnUse">
<stop stop-color="#FF4509"/>
<stop offset="1" stop-color="#FFA160"/>
</linearGradient>
</defs>
</svg>
